<svg version="1.1" viewBox="0.0 0.0 960.0 540.0" fill="none" stroke="none" stroke-linecap="square" stroke-miterlimit="10" xmlns:xlink="http://www.w3.org/1999/xlink" xmlns="http://www.w3.org/2000/svg"><clipPath id="p.0"><path d="m0 0l960.0 0l0 540.0l-960.0 0l0 -540.0z" clip-rule="nonzero"/></clipPath><g clip-path="url(#p.0)"><path fill="#ffffff" d="m0 0l960.0 0l0 540.0l-960.0 0z" fill-rule="evenodd"/><path fill="#128678" d="m479.99213 513.4409l-200.12598 -111.552185l0 -263.7932l200.12598 -111.55223z" fill-rule="evenodd"/><path fill="#071a36" d="m480.00714 26.559055l200.12598 111.55223l0 263.7932l-200.12598 111.552185z" fill-rule="evenodd"/><path fill="#d9ead3" d="m353.30704 343.14285l-0.040008545 -146.31328l126.72577 -73.16859l126.70007 73.18267l0.040039062 146.3133l-126.7258 73.16858z" fill-rule="evenodd"/><path fill="#000000" fill-opacity="0.0" d="m409.35696 227.87401l140.94485 0" fill-rule="evenodd"/><path stroke="#b7b7b7" stroke-width="8.0" stroke-linejoin="round" stroke-linecap="butt" d="m409.35696 227.87401l140.94485 0" fill-rule="evenodd"/><path fill="#000000" fill-opacity="0.0" d="m410.62335 216.83464l0 22.07875" fill-rule="evenodd"/><path stroke="#b7b7b7" stroke-width="8.0" stroke-linejoin="round" stroke-linecap="butt" d="m410.62335 216.83464l0 22.07875" fill-rule="evenodd"/><path fill="#000000" fill-opacity="0.0" d="m550.64307 216.83464l0 22.07875" fill-rule="evenodd"/><path stroke="#b7b7b7" stroke-width="8.0" stroke-linejoin="round" stroke-linecap="butt" d="m550.64307 216.83464l0 22.07875" fill-rule="evenodd"/><path fill="#000000" fill-opacity="0.0" d="m438.73065 289.23883l82.34003 0" fill-rule="evenodd"/><path stroke="#e06666" stroke-width="8.0" stroke-linejoin="round" stroke-linecap="butt" d="m438.73065 289.23883l82.34003 0" fill-rule="evenodd"/><path fill="#000000" fill-opacity="0.0" d="m439.4705 278.19946l0 22.078766" fill-rule="evenodd"/><path stroke="#e06666" stroke-width="8.0" stroke-linejoin="round" stroke-linecap="butt" d="m439.4705 278.19946l0 22.078766" fill-rule="evenodd"/><path fill="#000000" fill-opacity="0.0" d="m521.26996 278.19946l0 22.078766" fill-rule="evenodd"/><path stroke="#e06666" stroke-width="8.0" stroke-linejoin="round" stroke-linecap="butt" d="m521.26996 278.19946l0 22.078766" fill-rule="evenodd"/><path fill="#000000" fill-opacity="0.0" d="m409.35434 327.4462l141.29135 0l0 35.653534l-141.29135 0z" fill-rule="evenodd"/><path fill="#e06666" d="m445.67844 364.6062l-4.609375 0l-1.828125 -4.765625l-8.390625 0l-1.734375 4.765625l-4.5 0l8.171875 -21.0l4.484375 0l8.40625 21.0zm-7.796875 -8.3125l-2.890625 -7.78125l-2.84375 7.78125l5.734375 0zm9.570465 2.71875l0 -4.03125l7.890625 0l0 4.03125l-7.890625 0zm14.969635 5.59375l0 -17.4375l-6.234375 0l0 -3.5625l16.6875 0l0 3.5625l-6.21875 0l0 17.4375l-4.234375 0zm13.133545 0l0 -21.0l6.34375 0l3.8125 14.328125l3.765625 -14.328125l6.359375 0l0 21.0l-3.9375 0l0 -16.53125l-4.171875 16.53125l-4.078125 0l-4.15625 -16.53125l0 16.53125l-3.9375 0zm24.602417 0l0 -20.828125l4.234375 0l0 17.296875l10.5469055 0l0 3.53125l-14.7812805 0zm17.80545 0l0 -21.0l15.5625 0l0 3.5625l-11.328125 0l0 4.65625l10.53125 0l0 3.53125l-10.53125 0l0 5.71875l11.71875 0l0 3.53125l-15.953125 0z" fill-rule="nonzero"/></g></svg>